<svg width="124" height="38" viewBox="0 0 124 38" fill="none" xmlns="http://www.w3.org/2000/svg">
    <rect x="0.242676" y="0.796143" width="36.4078" height="36.4078" rx="18.2039" fill="#8D75F5" />
    <path
        d="M27.3192 20.63C27.3192 21.9181 27.0614 23.0264 26.5734 23.8356C25.947 24.8751 24.9733 25.425 23.7579 25.425C21.4381 25.425 19.8785 22.5147 18.2279 19.4338C17.0286 17.1958 15.5402 14.4109 14.3164 14.4109C13.7267 14.4109 13.0039 15.1276 12.4302 16.281C11.7741 17.6379 11.4257 19.1229 11.4099 20.63C11.4099 21.5708 11.5812 22.3724 11.8918 22.8879C12.1801 23.3667 12.5756 23.5893 13.1354 23.5893C14.1871 23.5893 15.4782 21.3712 15.9027 20.6453C16.0254 20.435 16.2265 20.2819 16.462 20.2199C16.6975 20.1579 16.9479 20.1919 17.1583 20.3145C17.3686 20.4371 17.5217 20.6383 17.5837 20.8738C17.6457 21.1092 17.6117 21.3597 17.4891 21.5701C16.8076 22.7388 16.2248 23.5587 15.6534 24.1538C14.8327 25.0089 14.0105 25.425 13.1354 25.425C11.9201 25.425 10.9464 24.8751 10.32 23.8356C9.83198 23.0264 9.57422 21.9181 9.57422 20.63C9.57422 17.2669 11.3778 12.5752 14.3164 12.5752C16.6363 12.5752 18.1958 15.4855 19.8464 18.5664C21.0473 20.8044 22.5365 23.5893 23.7579 23.5893C24.3178 23.5893 24.7133 23.3667 25.0016 22.8879C25.3122 22.3724 25.4835 21.5708 25.4835 20.63C25.468 19.123 25.1198 17.6379 24.4639 16.281C23.8903 15.1276 23.1675 14.4109 22.577 14.4109C22.1395 14.4109 21.6125 14.7933 21.0098 15.5452C20.8576 15.7353 20.6362 15.8571 20.3942 15.8839C20.1522 15.9108 19.9095 15.8404 19.7194 15.6882C19.5294 15.5361 19.4075 15.3147 19.3807 15.0727C19.3539 14.8307 19.4243 14.588 19.5764 14.3979C20.5593 13.1718 21.5406 12.5752 22.577 12.5752C23.927 12.5752 25.1775 13.6009 26.1069 15.4633C26.8864 17.0753 27.3004 18.8396 27.3192 20.63Z"
        fill="white" />
    <path
        d="M58.0391 29.3222V9.82468H61.0473V29.3222H58.0391ZM45.3101 29.3222V9.82468H48.3182V29.3222H45.3101ZM46.6192 21.0497V18.1529H59.3761V21.0497H46.6192Z"
        fill="#16151C" />
    <path
        d="M66.4995 29.3222V9.82468H74.7998C75.914 9.82468 76.9353 10.1032 77.8637 10.6603C78.8107 11.1988 79.5628 11.9416 80.1199 12.8886C80.6769 13.817 80.9555 14.8662 80.9555 16.036C80.9555 17.0945 80.6769 18.0786 80.1199 18.9885C79.5628 19.8984 78.82 20.6319 77.8916 21.1889C76.9631 21.7274 75.9325 21.9967 74.7998 21.9967H69.5076V29.3222H66.4995ZM78.0865 29.3222L73.1286 20.5205L76.2204 19.8241L81.7354 29.35L78.0865 29.3222ZM69.5076 19.0999H75.0784C75.6169 19.0999 76.0997 18.9699 76.5267 18.71C76.9538 18.4314 77.2881 18.0601 77.5295 17.5958C77.7709 17.113 77.8916 16.5838 77.8916 16.0082C77.8916 15.3583 77.7337 14.7919 77.4181 14.3091C77.1209 13.8077 76.6939 13.4178 76.1368 13.1393C75.5983 12.8607 74.9855 12.7215 74.2985 12.7215H69.5076V19.0999Z"
        fill="#16151C" />
    <path
        d="M85.8664 29.3222V9.82468H88.8189L95.9215 21.3839L94.501 21.3561L101.687 9.82468H104.473V29.3222H101.464V21.3282C101.464 19.657 101.502 18.1529 101.576 16.8159C101.669 15.479 101.817 14.1513 102.021 12.8329L102.411 13.8634L96.0329 23.7236H94.1946L88.0111 13.9749L88.3175 12.8329C88.5218 14.077 88.661 15.3583 88.7353 16.6767C88.8282 17.9765 88.8746 19.527 88.8746 21.3282V29.3222H85.8664Z"
        fill="#16151C" />
    <path
        d="M115.955 29.6007C114.897 29.6007 113.913 29.4615 113.003 29.1829C112.112 28.9044 111.295 28.4866 110.552 27.9295C109.828 27.3539 109.178 26.6482 108.602 25.8126L110.663 23.4451C111.573 24.7449 112.446 25.6455 113.281 26.1469C114.117 26.6482 115.111 26.8989 116.262 26.8989C116.967 26.8989 117.608 26.7875 118.184 26.5647C118.759 26.3419 119.214 26.0355 119.549 25.6455C119.883 25.2556 120.05 24.8099 120.05 24.3085C120.05 23.9743 119.994 23.6586 119.883 23.3615C119.771 23.0644 119.595 22.7952 119.354 22.5538C119.131 22.3124 118.834 22.0895 118.462 21.8853C118.109 21.681 117.692 21.5046 117.209 21.3561C116.726 21.1889 116.169 21.0497 115.538 20.9383C114.535 20.734 113.662 20.4647 112.919 20.1305C112.177 19.7963 111.555 19.3785 111.053 18.8771C110.552 18.3757 110.18 17.8094 109.939 17.178C109.698 16.5281 109.577 15.8039 109.577 15.0054C109.577 14.2255 109.744 13.5014 110.078 12.8329C110.431 12.1644 110.905 11.5887 111.499 11.1059C112.112 10.6046 112.827 10.2239 113.644 9.96395C114.461 9.68541 115.343 9.54614 116.29 9.54614C117.292 9.54614 118.212 9.67613 119.047 9.93609C119.883 10.1961 120.626 10.586 121.275 11.1059C121.925 11.6073 122.464 12.2294 122.891 12.9721L120.774 15.0612C120.403 14.4484 119.985 13.9377 119.521 13.5292C119.056 13.1021 118.546 12.7864 117.989 12.5822C117.432 12.3594 116.837 12.2479 116.206 12.2479C115.482 12.2479 114.851 12.3594 114.312 12.5822C113.774 12.805 113.346 13.1207 113.031 13.5292C112.734 13.9192 112.585 14.3834 112.585 14.9219C112.585 15.3118 112.659 15.6739 112.808 16.0082C112.957 16.3238 113.179 16.6117 113.476 16.8716C113.792 17.113 114.21 17.3359 114.73 17.5401C115.25 17.7258 115.872 17.8929 116.596 18.0415C117.617 18.2643 118.527 18.5521 119.326 18.9049C120.124 19.2392 120.802 19.6384 121.359 20.1026C121.916 20.5669 122.334 21.0868 122.612 21.6624C122.91 22.2381 123.058 22.8602 123.058 23.5286C123.058 24.7728 122.77 25.8498 122.195 26.7597C121.619 27.6695 120.802 28.3752 119.744 28.8765C118.685 29.3593 117.422 29.6007 115.955 29.6007Z"
        fill="#16151C" />
</svg>